# xmcd
#
# Track frame offsets:
#	162
#	12655
#	24282
#	36565
#	55880
#	68482
#	80835
#	94190
#	109150
#	122120
#
# Disc length: 1836 seconds
#
# Revision: 3
# Processed by: cddbd v1.5.1PL0 Copyright (c) Steve Scherf et al.
# Submitted via: EasyCDDAExtractor 7.0.5.1
#
DISCID=85072a0a
DTITLE=Reba McEntire - Feel The Fire
DYEAR=1980
DGENRE=Country
TTITLE0=(You Lift Me) Up To Heaven
TTITLE1=Tears On My Pillow
TTITLE2=I Don't Think Love Ought To Be That Way
TTITLE3=Long Distance Lover
TTITLE4=If I Had It My Way
TTITLE5=I Can See Forever In Your Eyes
TTITLE6=A Poor Man's Roses (Or A Rich Man's Gold)
TTITLE7=My Turn
TTITLE8=Look At The One (Who's Been Lookin' At You)
TTITLE9=Suddenly There's A Valley
EXTD=
EXTT0=
EXTT1=
EXTT2=
EXTT3=
EXTT4=
EXTT5=
EXTT6=
EXTT7=
EXTT8=
EXTT9=
PLAYORDER=
